<mxfile host="65bd71144e">
    <diagram id="LyWGx0zPtrlQJ4lFl4Q8" name="Page-1">
        <mxGraphModel dx="3961" dy="643" grid="1" gridSize="10" guides="1" tooltips="1" connect="1" arrows="1" fold="1" page="1" pageScale="1" pageWidth="850" pageHeight="1100" math="0" shadow="0">
            <root>
                <mxCell id="0"/>
                <mxCell id="1" parent="0"/>
                <mxCell id="2" value="" style="rounded=0;whiteSpace=wrap;html=1;" vertex="1" parent="1">
                    <mxGeometry x="-2380" y="780" width="220" height="240" as="geometry"/>
                </mxCell>
                <mxCell id="3" value="" style="rounded=0;whiteSpace=wrap;html=1;dashed=1;" vertex="1" parent="1">
                    <mxGeometry x="-2330" y="830" width="120" height="150" as="geometry"/>
                </mxCell>
                <mxCell id="4" value="Operating&lt;div&gt;DB&lt;/div&gt;&lt;div&gt;(OperDB)&lt;/div&gt;" style="shape=cylinder3;whiteSpace=wrap;html=1;boundedLbl=1;backgroundOutline=1;size=15;" vertex="1" parent="1">
                    <mxGeometry x="-2300" y="870" width="70" height="86.5" as="geometry"/>
                </mxCell>
                <mxCell id="5" value="Контейнер&lt;div&gt;(docker)&lt;/div&gt;" style="text;html=1;align=center;verticalAlign=middle;resizable=0;points=[];autosize=1;strokeColor=none;fillColor=default;" vertex="1" parent="1">
                    <mxGeometry x="-2310" y="809" width="80" height="40" as="geometry"/>
                </mxCell>
                <mxCell id="6" value="Операционная система" style="text;html=1;align=center;verticalAlign=middle;resizable=0;points=[];autosize=1;strokeColor=none;fillColor=default;" vertex="1" parent="1">
                    <mxGeometry x="-2347" y="770" width="160" height="30" as="geometry"/>
                </mxCell>
                <mxCell id="7" value="" style="shape=flexArrow;endArrow=classic;html=1;rounded=0;" edge="1" parent="1">
                    <mxGeometry width="50" height="50" relative="1" as="geometry">
                        <mxPoint x="-2140" y="900" as="sourcePoint"/>
                        <mxPoint x="-2030" y="900" as="targetPoint"/>
                    </mxGeometry>
                </mxCell>
                <mxCell id="8" value="" style="rounded=0;whiteSpace=wrap;html=1;" vertex="1" parent="1">
                    <mxGeometry x="-2030" y="779" width="220" height="240" as="geometry"/>
                </mxCell>
                <mxCell id="9" value="Operating&lt;div&gt;DB&lt;/div&gt;&lt;div&gt;(OperDB)&lt;/div&gt;" style="shape=cylinder3;whiteSpace=wrap;html=1;boundedLbl=1;backgroundOutline=1;size=15;" vertex="1" parent="1">
                    <mxGeometry x="-1950" y="869" width="70" height="86.5" as="geometry"/>
                </mxCell>
                <mxCell id="10" value="Операционная система" style="text;html=1;align=center;verticalAlign=middle;resizable=0;points=[];autosize=1;strokeColor=none;fillColor=default;" vertex="1" parent="1">
                    <mxGeometry x="-1997" y="769" width="160" height="30" as="geometry"/>
                </mxCell>
            </root>
        </mxGraphModel>
    </diagram>
</mxfile>